<svg xmlns="http://www.w3.org/2000/svg" viewBox="0 0 427 93">
    <title>Acclime White</title>
    <path d="M51.71,6.82a4.89,4.89,0,0,0-2.8-2.62,7.17,7.17,0,0,0-5.46,0,4.88,4.88,0,0,0-2.81,2.64L3.78,83.66a3.68,3.68,0,0,0-.22,3h0a4,4,0,0,0,2.05,2.22,3.4,3.4,0,0,0,3,.14,4.46,4.46,0,0,0,2.12-2l12-24.85H69.61l12,24.89a4.39,4.39,0,0,0,2.1,1.94,3.13,3.13,0,0,0,1.33.29,3.68,3.68,0,0,0,1.68-.43,4,4,0,0,0,2.06-2.22,3.73,3.73,0,0,0-.22-3ZM66,54.72H26.34L46.18,13.64Z" fill="#fff" />
    <path d="M108.36,36.34a15.55,15.55,0,0,1,4.69-3.2,14.55,14.55,0,0,1,11.47,0,15.37,15.37,0,0,1,4.69,3.2A3.63,3.63,0,0,0,132,37.5a4.09,4.09,0,0,0,2.74-1.28,3.64,3.64,0,0,0,0-5.44A22.74,22.74,0,0,0,127.61,26,23.1,23.1,0,0,0,110,26,22.32,22.32,0,0,0,98,38a22.52,22.52,0,0,0,20.82,31.32,22.18,22.18,0,0,0,8.82-1.75,22.41,22.41,0,0,0,7.15-4.83,3.63,3.63,0,0,0,0-5.43,3.64,3.64,0,0,0-5.43,0,14.37,14.37,0,0,1-10.54,4.26,14.1,14.1,0,0,1-5.74-1.18,15.74,15.74,0,0,1-4.69-3.2,15.55,15.55,0,0,1-3.2-4.69,14.53,14.53,0,0,1,0-11.47A15.55,15.55,0,0,1,108.36,36.34Z" fill="#fff" />
    <path d="M161.54,36.34a15.55,15.55,0,0,1,4.69-3.2,14.53,14.53,0,0,1,11.46,0,15.25,15.25,0,0,1,4.69,3.2,3.65,3.65,0,0,0,2.82,1.16,4.09,4.09,0,0,0,2.74-1.28,3.64,3.64,0,0,0,0-5.44A22.85,22.85,0,0,0,180.79,26a23.1,23.1,0,0,0-17.59,0,22.32,22.32,0,0,0-12,12.05,22.58,22.58,0,0,0,36.79,24.74,3.63,3.63,0,0,0,0-5.43,3.64,3.64,0,0,0-5.43,0A14.39,14.39,0,0,1,172,61.57a14.06,14.06,0,0,1-5.73-1.18,15.74,15.74,0,0,1-4.69-3.2,15.37,15.37,0,0,1-3.2-4.69,14.41,14.41,0,0,1,0-11.47A15.37,15.37,0,0,1,161.54,36.34Z" fill="#fff" />
    <path d="M241.33,61.2h-26V28.58a3.54,3.54,0,0,0-1.11-2.73,3.87,3.87,0,0,0-2.76-1,3.75,3.75,0,0,0-3.87,3.88V64.82a3.81,3.81,0,0,0,1.09,2.78,3.77,3.77,0,0,0,2.78,1.09h29.89a3.93,3.93,0,0,0,2.76-1,3.92,3.92,0,0,0,0-5.47A3.93,3.93,0,0,0,241.33,61.2Z" fill="#fff" />
    <path d="M261.26,24.58a3.76,3.76,0,0,0-3.88,3.88V65.07A3.94,3.94,0,0,0,264,67.85h0a3.81,3.81,0,0,0,1.09-2.78V28.46a3.75,3.75,0,0,0-3.87-3.88Z" fill="#fff" />
    <path d="M329,24.58a4,4,0,0,0-1.93.41,8.59,8.59,0,0,0-1.73,1.44L310.7,41.32,296,26.43A9,9,0,0,0,294.32,25a4,4,0,0,0-1.93-.41,3.76,3.76,0,0,0-3.87,3.88V65.07a3.81,3.81,0,0,0,1.09,2.78,3.88,3.88,0,0,0,6.66-2.78V37.78l10.9,11a8.54,8.54,0,0,0,1.73,1.43,4.72,4.72,0,0,0,3.85,0,8.59,8.59,0,0,0,1.73-1.44l10.65-11V65.07a3.88,3.88,0,1,0,7.75,0V28.46A3.76,3.76,0,0,0,329,24.58Z" fill="#fff" />
    <path d="M390,61.2H364V50H383.8a3.91,3.91,0,0,0,2.76-1,3.54,3.54,0,0,0,1.11-2.73,3.58,3.58,0,0,0-1.11-2.74,3.91,3.91,0,0,0-2.76-1H364V32.33h26a4,4,0,0,0,2.76-1,3.58,3.58,0,0,0,1.11-2.74,3.54,3.54,0,0,0-1.11-2.73,3.89,3.89,0,0,0-2.76-1H360.14a3.75,3.75,0,0,0-3.87,3.88V64.82a3.81,3.81,0,0,0,1.09,2.78,3.77,3.77,0,0,0,2.78,1.09H390a3.93,3.93,0,0,0,2.76-1,3.92,3.92,0,0,0,0-5.47A3.93,3.93,0,0,0,390,61.2Z" fill="#fff" />
    <path d="M422,79.54a5.54,5.54,0,0,0-4.08-1.65,5.4,5.4,0,0,0-4,1.66,5.7,5.7,0,0,0-1.58,4.08,5.44,5.44,0,0,0,5.62,5.61A5.66,5.66,0,0,0,422,87.66a5.35,5.35,0,0,0,1.67-4A5.57,5.57,0,0,0,422,79.54Z" fill="#ff8200" />
</svg>